<?xml version="1.0" encoding="utf-8"?>
<!-- Generator: Adobe Illustrator 16.0.0, SVG Export Plug-In . SVG Version: 6.00 Build 0)  -->
<!DOCTYPE svg PUBLIC "-//W3C//DTD SVG 1.1//EN" "http://www.w3.org/Graphics/SVG/1.1/DTD/svg11.dtd">
<svg version="1.1" id="Layer_1" xmlns="http://www.w3.org/2000/svg" xmlns:xlink="http://www.w3.org/1999/xlink" x="0px" y="0px"
	 width="123.984px" height="59.992px" viewBox="0 0 123.984 59.992" enable-background="new 0 0 123.984 59.992"
	 xml:space="preserve">
<g>
	<path fill-rule="evenodd" clip-rule="evenodd" fill="#F6F7D9" d="M1.587,32.019c0-2.752,0.004-5.504-0.006-8.255
		c-0.001-0.271,0.059-0.35,0.34-0.348c2.177,0.016,4.354-0.022,6.53,0.029c1.823,0.043,3.467,0.636,4.815,1.911
		c1.047,0.99,1.711,2.217,2.062,3.603c0.625,2.462,0.609,4.914-0.41,7.272c-1.211,2.801-3.436,4.232-6.445,4.361
		c-2.195,0.094-4.396,0.027-6.595,0.046c-0.273,0.002-0.295-0.107-0.295-0.33C1.59,37.544,1.587,34.782,1.587,32.019z M4.892,32.029
		c0,1.745,0.001,3.489-0.002,5.234c0,0.185,0.005,0.305,0.255,0.301c1.038-0.015,2.076,0.01,3.113-0.012
		c1.709-0.036,2.941-0.871,3.597-2.417c0.816-1.922,0.792-3.926,0.15-5.889c-0.535-1.639-1.709-2.589-3.463-2.727
		c-1.112-0.088-2.229-0.01-3.343-0.04c-0.254-0.007-0.313,0.073-0.312,0.316C4.897,28.54,4.892,30.285,4.892,32.029z"/>
	<path fill-rule="evenodd" clip-rule="evenodd" fill="#F6F7D9" d="M121.262,51.263c-1.639,0.467-3.274,0.948-4.918,1.398
		c-2.644,0.726-5.345,1.168-8.049,1.592c-1.559,0.244-3.121,0.473-4.684,0.69c-1.227,0.17-2.47,0.125-3.7,0.237
		c-2.225,0.205-4.436-0.052-6.65-0.165c-2.238-0.114-4.474-0.27-6.71-0.429c-2.092-0.148-4.183-0.325-6.274-0.489
		c-2.113-0.166-4.227-0.334-6.34-0.496c-2.158-0.166-4.315-0.333-6.474-0.487c-2.202-0.157-4.406-0.304-6.609-0.447
		c-2.325-0.151-4.649-0.308-6.975-0.434c-1.676-0.091-3.354-0.144-5.031-0.196c-3.632-0.114-7.265-0.178-10.899-0.181
		c-4.895-0.004-9.78,0.197-14.659,0.59c-4.051,0.327-8.093,0.728-12.129,1.202c-2.654,0.312-5.307,0.623-7.96,0.941
		c-0.483,0.058-0.963,0.146-1.444,0.22c-0.004-0.027-0.009-0.054-0.014-0.081c0.891-0.182,1.782-0.365,2.674-0.547
		c3.678-0.748,7.383-1.338,11.093-1.897c2.675-0.403,5.363-0.706,8.057-0.966c3.012-0.29,6.025-0.549,9.047-0.7
		c2.503-0.125,5.009-0.183,7.516-0.227c2.342-0.041,4.685-0.09,7.025-0.028c2.262,0.06,4.522,0.194,6.782,0.307
		c3.451,0.173,6.9,0.397,10.347,0.647c3.05,0.222,6.097,0.49,9.145,0.757c3.442,0.302,6.886,0.594,10.328,0.906
		c3.552,0.322,7.098,0.717,10.654,0.978c3.161,0.231,6.33,0.262,9.499-0.013c2.663-0.231,5.322-0.475,7.964-0.881
		c2.445-0.375,4.858-0.915,7.276-1.429c0.698-0.149,1.398-0.292,2.097-0.438C121.252,51.222,121.257,51.243,121.262,51.263z"/>
	<path fill-rule="evenodd" clip-rule="evenodd" fill="#F6F7D9" d="M37.661,39.459c0,1.335,0,2.604,0,3.873
		c0,0.895-0.005,1.79,0.004,2.685c0.001,0.199-0.027,0.292-0.264,0.289c-0.917-0.014-1.834-0.014-2.751,0
		c-0.226,0.003-0.275-0.074-0.275-0.282c0.004-4.011-0.025-8.022,0.013-12.032c0.029-3.046,2.116-5.628,4.957-6.26
		c4.48-0.996,8.31,2.219,8.139,6.834c-0.1,2.687-1.785,5.172-4.185,5.99c-1.977,0.674-3.854,0.457-5.487-0.975
		C37.781,39.554,37.748,39.529,37.661,39.459z M40.949,37.823c0.505,0.025,0.995-0.123,1.456-0.386
		c1.943-1.108,2.412-3.869,0.959-5.644c-1.14-1.392-3.086-1.564-4.449-0.394c-1.16,0.996-1.572,2.707-1.006,4.174
		C38.444,36.963,39.593,37.821,40.949,37.823z"/>
	<path fill-rule="evenodd" clip-rule="evenodd" fill="#F6F7D9" d="M22.35,36.679c1.199,1.775,4.039,1.798,5.245,0.066
		c0.069-0.099,0.119-0.197,0.274-0.196c1.104,0.006,2.209,0.003,3.35,0.003c-0.27,0.976-0.742,1.805-1.421,2.517
		c-1.18,1.235-2.664,1.783-4.335,1.843c-3.473,0.126-6.23-2.09-6.867-5.492c-0.675-3.609,1.75-7.141,5.355-7.799
		c3.43-0.627,6.695,1.613,7.334,5.024c0.044,0.239-0.067,0.303-0.246,0.378c-2.747,1.151-5.492,2.306-8.237,3.46
		C22.652,36.547,22.503,36.613,22.35,36.679z M21.607,34.017c0.335-0.09,5.658-2.341,5.881-2.487
		c-0.837-1.044-2.411-1.406-3.731-0.86C22.469,31.203,21.481,32.742,21.607,34.017z"/>
	<path fill-rule="evenodd" clip-rule="evenodd" fill="#F6F7D9" d="M113.647,36.607c-0.735,2.199-2.477,3.941-5.027,4.252
		c-2.024,0.247-3.862-0.198-5.372-1.599c-2.021-1.876-2.647-4.231-1.942-6.856c0.702-2.616,2.435-4.286,5.125-4.83
		c2.58-0.521,5.365,0.938,6.634,3.405c0.233,0.453,0.397,0.93,0.551,1.415c0.092,0.293,0,0.401-0.259,0.509
		c-3.04,1.275-6.074,2.565-9.116,3.836c-0.307,0.128-0.29,0.216-0.112,0.451c1.706,2.262,5.564,2.334,7.131-0.262
		c0.153-0.254,0.318-0.339,0.605-0.328C112.45,36.623,113.035,36.607,113.647,36.607z M103.244,35.074
		c0.217-0.09,0.4-0.165,0.582-0.241c2.337-0.985,4.675-1.969,7.011-2.956c0.115-0.049,0.309-0.052,0.157-0.278
		c-0.833-1.236-1.942-2.023-3.47-2.057c-1.739-0.039-3.341,1.128-4.028,2.876C103.161,33.268,103.102,34.146,103.244,35.074z"/>
	<path fill-rule="evenodd" clip-rule="evenodd" fill="#F6F7D9" d="M76.686,38.814c-0.527,0.532-1.049,1.016-1.672,1.382
		c-1.961,1.158-4.577,0.973-6.504-0.502c-1.982-1.517-2.726-3.586-2.599-6.025c0.156-2.979,2.505-5.629,5.38-6.06
		c3.344-0.501,6.377,1.521,7.219,4.81c0.157,0.613,0.229,1.236,0.23,1.867c0.005,2-0.003,3.999,0.008,5.998
		c0.001,0.269-0.062,0.369-0.346,0.355c-0.485-0.023-0.972-0.015-1.458-0.002c-0.206,0.005-0.267-0.068-0.263-0.268
		C76.693,39.85,76.686,39.332,76.686,38.814z M76.613,34.554c0.003-1.304-0.276-2.232-0.826-3.076
		c-1.472-2.254-4.343-2.661-6.228-0.885c-1.761,1.659-2.062,4.521-0.688,6.512c1.403,2.031,4.044,2.488,5.913,0.994
		C76.004,37.123,76.579,35.812,76.613,34.554z"/>
	<path fill-rule="evenodd" clip-rule="evenodd" fill="#F6F7D9" d="M60.738,29.354c0,2.198,0.001,4.396-0.002,6.594
		c0,0.3,0.028,0.597,0.095,0.887c0.258,1.116,1.095,1.745,2.356,1.784c0.524,0.016,0.524,0.016,0.524,0.528
		c0,0.419-0.006,0.839,0.003,1.259c0.003,0.169-0.062,0.235-0.226,0.248c-2.61,0.205-4.415-1.19-4.803-3.682
		c-0.058-0.372-0.072-0.746-0.071-1.123c0.002-4.418,0.005-8.836-0.005-13.254c-0.001-0.307,0.054-0.431,0.39-0.407
		c0.45,0.032,0.906,0.032,1.357,0c0.335-0.024,0.392,0.1,0.39,0.407C60.732,24.847,60.738,27.101,60.738,29.354z"/>
	<path fill-rule="evenodd" clip-rule="evenodd" fill="#F6F7D9" d="M54.305,34.229c0,2.021-0.005,4.042,0.007,6.063
		c0.002,0.278-0.073,0.352-0.348,0.346c-0.883-0.018-1.767-0.014-2.65-0.001c-0.236,0.003-0.296-0.076-0.296-0.303
		c0.006-4.064,0.006-8.128,0-12.192c0-0.239,0.079-0.294,0.304-0.292c0.894,0.011,1.789,0.015,2.683-0.001
		c0.257-0.005,0.307,0.078,0.306,0.317C54.302,30.187,54.305,32.208,54.305,34.229z"/>
	<path fill-rule="evenodd" clip-rule="evenodd" fill="#F6F7D9" d="M118.23,29.247c1.043-1.257,2.329-1.758,3.854-1.719
		c0.243,0.006,0.327,0.073,0.318,0.323c-0.019,0.496-0.016,0.994-0.001,1.491c0.007,0.233-0.035,0.316-0.304,0.314
		c-1.107-0.007-2.122,0.273-2.906,1.116c-0.616,0.663-0.879,1.47-0.882,2.362c-0.006,2.375-0.008,4.75,0.005,7.124
		c0.002,0.31-0.086,0.395-0.386,0.38c-0.484-0.024-0.972-0.013-1.458-0.004c-0.199,0.003-0.292-0.036-0.291-0.271
		c0.007-4.076,0.006-8.151,0.001-12.227c0-0.208,0.048-0.293,0.274-0.286c0.508,0.016,1.016,0.015,1.524,0
		c0.213-0.006,0.262,0.071,0.254,0.267C118.22,28.467,118.23,28.818,118.23,29.247z"/>
	<path fill-rule="evenodd" clip-rule="evenodd" fill="#F6F7D9" d="M81.696,39.57c0-0.31-0.101-0.671,0.026-0.915
		c0.146-0.28,0.55-0.098,0.837-0.145c1.634-0.266,2.417-1.159,2.586-2.942c0.09-0.948,0.024-1.899,0.125-2.846
		c0.116-1.101,0.332-2.165,1.034-3.062c0.967-1.236,2.27-1.78,3.812-1.804c0.695-0.011,0.695-0.005,0.695,0.687
		c0,0.343-0.015,0.686,0.004,1.028c0.015,0.258-0.036,0.376-0.334,0.361c-0.294-0.015-0.596,0.027-0.889,0.078
		c-1.17,0.205-1.888,0.987-2.132,2.27c-0.187,0.984-0.13,1.981-0.189,2.972c-0.058,0.986-0.172,1.967-0.647,2.852
		c-0.928,1.726-2.442,2.476-4.35,2.528c-0.581,0.015-0.582,0.004-0.582-0.562c0-0.166,0-0.332,0-0.497
		C81.694,39.57,81.695,39.57,81.696,39.57z"/>
	<path fill-rule="evenodd" clip-rule="evenodd" fill="#F6F7D9" d="M90.677,39.587c0-0.276,0.008-0.552-0.002-0.828
		c-0.006-0.175,0.057-0.229,0.23-0.22c0.4,0.021,0.794-0.035,1.179-0.142c1.294-0.357,1.84-1.301,2.012-2.551
		c0.11-0.802,0.081-1.608,0.118-2.412c0.045-0.998,0.135-1.993,0.568-2.905c0.836-1.76,2.294-2.586,4.204-2.671
		c0.821-0.036,0.822-0.022,0.822,0.784c0,0.354-0.008,0.707,0.003,1.06c0.005,0.176-0.056,0.22-0.228,0.225
		c-0.341,0.01-0.686,0.025-1.021,0.085c-1.216,0.22-1.926,1.048-2.146,2.447c-0.123,0.778-0.115,1.562-0.136,2.345
		c-0.028,1.052-0.105,2.106-0.56,3.072c-0.865,1.837-2.393,2.667-4.371,2.752c-0.67,0.029-0.671,0.013-0.671-0.643
		C90.677,39.852,90.677,39.72,90.677,39.587z"/>
	<path fill-rule="evenodd" clip-rule="evenodd" fill="#FFFFFF" d="M56.135,15.962c0.012-0.954-0.14-1.869-0.505-2.747
		c-0.217-0.521-0.467-1.027-0.795-1.483c-1.082-1.501-1.171-3.115-0.594-4.815c0.242-0.712,0.564-1.387,0.92-2.048
		c0.057-0.106,0.099-0.207,0.23-0.068c0.965,1.026,1.892,2.076,2.192,3.516c0.218,1.047-0.014,2.036-0.403,3.001
		c-0.124,0.306-0.254,0.612-0.413,0.901c-0.266,0.483-0.335,0.991-0.295,1.533c0.039,0.526,0.091,1.058-0.041,1.581
		C56.375,15.557,56.305,15.776,56.135,15.962z"/>
	<path fill-rule="evenodd" clip-rule="evenodd" fill="#FFFFFF" d="M62.322,11.608c-0.036,1.662-0.841,2.892-2.157,3.828
		c-0.89,0.632-1.886,1.046-2.92,1.378c-0.225,0.072-0.246-0.006-0.221-0.19c0.166-1.214,0.352-2.424,0.867-3.552
		c0.643-1.405,1.728-2.319,3.169-2.823c0.754-0.264,1.124-0.008,1.211,0.799C62.293,11.234,62.306,11.421,62.322,11.608z"/>
	<path fill-rule="evenodd" clip-rule="evenodd" fill="#FFFFFF" d="M55.297,16.812c-1.806-0.587-3.481-1.282-4.586-2.882
		c-0.616-0.892-0.812-1.898-0.702-2.962c0.087-0.836,0.474-1.071,1.275-0.783c1.319,0.474,2.347,1.301,2.992,2.561
		C54.921,14.002,55.111,15.376,55.297,16.812z"/>
	<path fill-rule="evenodd" clip-rule="evenodd" fill="#F6F7D9" d="M50.99,24.6c-0.002-0.917,0.716-1.646,1.628-1.652
		c0.932-0.007,1.659,0.721,1.655,1.656c-0.004,0.917-0.731,1.641-1.643,1.637C51.715,26.236,50.992,25.512,50.99,24.6z"/>
</g>
</svg>
