<?xml version="1.0" encoding="utf-8"?>
<!-- Generator: Adobe Illustrator 16.0.0, SVG Export Plug-In . SVG Version: 6.00 Build 0)  -->
<!DOCTYPE svg PUBLIC "-//W3C//DTD SVG 1.1//EN" "http://www.w3.org/Graphics/SVG/1.1/DTD/svg11.dtd">
<svg version="1.1" id="Layer_1" xmlns="http://www.w3.org/2000/svg" xmlns:xlink="http://www.w3.org/1999/xlink" x="0px" y="0px"
	 width="212.973px" height="106.987px" viewBox="0 0 212.973 106.987" enable-background="new 0 0 212.973 106.987"
	 xml:space="preserve">
<g>
	<path fill-rule="evenodd" clip-rule="evenodd" fill="#738E0E" d="M5.63,56.87c0-4.595,0.007-9.188-0.01-13.783
		c-0.002-0.452,0.097-0.584,0.568-0.581c3.635,0.026,7.271-0.037,10.904,0.048c3.043,0.072,5.789,1.062,8.039,3.19
		c1.749,1.654,2.857,3.703,3.443,6.015c1.044,4.112,1.017,8.206-0.685,12.144c-2.021,4.677-5.737,7.066-10.761,7.281
		c-3.665,0.157-7.341,0.045-11.012,0.077c-0.456,0.004-0.493-0.18-0.493-0.552C5.634,66.096,5.63,61.483,5.63,56.87z M11.148,56.888
		c0,2.913,0.002,5.826-0.004,8.739c0,0.309,0.008,0.508,0.425,0.502c1.733-0.024,3.467,0.017,5.198-0.02
		c2.854-0.061,4.911-1.455,6.005-4.035c1.362-3.21,1.322-6.555,0.251-9.834c-0.894-2.736-2.854-4.322-5.782-4.553
		c-1.857-0.146-3.722-0.017-5.582-0.066c-0.424-0.013-0.523,0.121-0.521,0.528C11.156,51.062,11.148,53.976,11.148,56.888z"/>
	<path fill-rule="evenodd" clip-rule="evenodd" fill="#738E0E" d="M205.447,89.003c-2.736,0.779-5.467,1.582-8.211,2.335
		c-4.414,1.211-8.924,1.95-13.438,2.657c-2.603,0.408-5.211,0.791-7.82,1.153c-2.048,0.284-4.124,0.207-6.179,0.396
		c-3.714,0.342-7.405-0.088-11.103-0.275c-3.737-0.189-7.471-0.45-11.204-0.715c-3.494-0.249-6.985-0.543-10.477-0.817
		c-3.529-0.276-7.057-0.557-10.586-0.828c-3.603-0.277-7.205-0.557-10.809-0.813c-3.677-0.263-7.356-0.508-11.035-0.747
		c-3.881-0.252-7.762-0.514-11.645-0.724c-2.798-0.151-5.599-0.239-8.399-0.327c-6.064-0.191-12.13-0.297-18.198-0.302
		c-8.173-0.007-16.329,0.329-24.476,0.986c-6.764,0.545-13.513,1.214-20.251,2.006c-4.431,0.521-8.861,1.041-13.29,1.572
		c-0.807,0.096-1.608,0.243-2.412,0.366c-0.008-0.045-0.015-0.09-0.023-0.135c1.488-0.304,2.976-0.609,4.464-0.913
		c6.141-1.249,12.328-2.234,18.522-3.168c4.466-0.673,8.955-1.179,13.451-1.612c5.029-0.484,10.061-0.917,15.107-1.169
		c4.18-0.21,8.363-0.305,12.548-0.378c3.91-0.068,7.821-0.151,11.729-0.047c3.777,0.1,7.551,0.323,11.324,0.512
		c5.763,0.289,11.521,0.663,17.277,1.082c5.093,0.371,10.18,0.817,15.268,1.265c5.748,0.504,11.498,0.992,17.245,1.513
		c5.931,0.537,11.851,1.197,17.789,1.632c5.278,0.387,10.569,0.438,15.859-0.021c4.446-0.387,8.886-0.794,13.298-1.471
		c4.083-0.627,8.112-1.528,12.148-2.388c1.166-0.248,2.334-0.487,3.501-0.729C205.431,88.934,205.438,88.968,205.447,89.003z"/>
	<path fill-rule="evenodd" clip-rule="evenodd" fill="#738E0E" d="M65.862,69.295c0,2.228,0,4.347,0,6.466
		c0,1.494-0.008,2.988,0.006,4.482c0.003,0.332-0.045,0.488-0.44,0.482c-1.531-0.023-3.062-0.022-4.593,0
		c-0.377,0.005-0.46-0.123-0.46-0.471c0.008-6.697-0.042-13.395,0.022-20.091c0.049-5.086,3.534-9.397,8.275-10.451
		c7.481-1.663,13.875,3.705,13.59,11.411c-0.166,4.487-2.98,8.636-6.986,10.002c-3.301,1.125-6.436,0.761-9.161-1.628
		C66.062,69.451,66.006,69.41,65.862,69.295z M71.351,66.562c0.844,0.042,1.662-0.205,2.431-0.644
		c3.244-1.851,4.027-6.461,1.601-9.424c-1.903-2.324-5.153-2.612-7.428-0.658c-1.937,1.663-2.625,4.52-1.68,6.969
		C67.169,65.126,69.088,66.559,71.351,66.562z"/>
	<path fill-rule="evenodd" clip-rule="evenodd" fill="#738E0E" d="M40.296,64.652c2.001,2.964,6.744,3.002,8.758,0.11
		c0.115-0.167,0.199-0.33,0.458-0.328c1.844,0.012,3.688,0.006,5.592,0.006c-0.45,1.63-1.238,3.015-2.374,4.203
		c-1.97,2.062-4.447,2.977-7.238,3.078c-5.799,0.21-10.403-3.491-11.465-9.171c-1.127-6.025,2.922-11.923,8.941-13.022
		c5.728-1.048,11.179,2.694,12.247,8.389c0.074,0.399-0.112,0.507-0.411,0.632c-4.586,1.921-9.169,3.851-13.752,5.777
		C40.802,64.432,40.553,64.542,40.296,64.652z M39.056,60.206c0.56-0.15,9.448-3.908,9.82-4.151
		c-1.398-1.743-4.025-2.349-6.23-1.437C40.497,55.508,38.846,58.077,39.056,60.206z"/>
	<path fill-rule="evenodd" clip-rule="evenodd" fill="#738E0E" d="M192.733,64.532c-1.228,3.671-4.135,6.58-8.395,7.101
		c-3.379,0.412-6.448-0.33-8.969-2.671c-3.375-3.132-4.42-7.063-3.243-11.447c1.171-4.368,4.064-7.156,8.557-8.065
		c4.308-0.87,8.958,1.565,11.077,5.685c0.389,0.757,0.664,1.554,0.919,2.364c0.154,0.488,0,0.668-0.432,0.85
		c-5.076,2.129-10.141,4.283-15.22,6.405c-0.512,0.214-0.484,0.36-0.188,0.753c2.849,3.776,9.291,3.898,11.907-0.437
		c0.256-0.425,0.532-0.566,1.011-0.548C190.734,64.559,191.71,64.532,192.733,64.532z M175.363,61.971
		c0.362-0.149,0.668-0.274,0.972-0.402c3.902-1.644,7.805-3.288,11.705-4.936c0.192-0.081,0.516-0.087,0.262-0.465
		c-1.39-2.064-3.244-3.378-5.794-3.435c-2.904-0.064-5.579,1.884-6.725,4.802C175.225,58.957,175.126,60.422,175.363,61.971z"/>
	<path fill-rule="evenodd" clip-rule="evenodd" fill="#738E0E" d="M131.02,68.217c-0.88,0.889-1.752,1.695-2.792,2.308
		c-3.274,1.934-7.641,1.624-10.86-0.839c-3.31-2.533-4.552-5.988-4.339-10.061c0.26-4.974,4.183-9.399,8.982-10.118
		c5.583-0.838,10.647,2.539,12.054,8.029c0.262,1.024,0.382,2.065,0.384,3.118c0.008,3.338-0.005,6.676,0.013,10.014
		c0.002,0.449-0.104,0.615-0.577,0.593c-0.81-0.038-1.623-0.024-2.434-0.004c-0.344,0.008-0.446-0.115-0.438-0.447
		C131.032,69.946,131.02,69.081,131.02,68.217z M130.899,61.104c0.005-2.177-0.46-3.727-1.38-5.136
		c-2.457-3.765-7.251-4.443-10.398-1.478c-2.94,2.771-3.444,7.548-1.147,10.873c2.342,3.392,6.752,4.154,9.872,1.659
		C129.883,65.393,130.842,63.205,130.899,61.104z"/>
	<path fill-rule="evenodd" clip-rule="evenodd" fill="#738E0E" d="M104.392,52.421c0,3.67,0.002,7.339-0.003,11.01
		c0,0.501,0.046,0.996,0.159,1.48c0.431,1.862,1.827,2.914,3.934,2.979c0.875,0.026,0.875,0.026,0.875,0.881
		c0,0.7-0.01,1.401,0.004,2.102c0.006,0.282-0.102,0.393-0.376,0.415c-4.358,0.341-7.371-1.988-8.019-6.148
		c-0.097-0.62-0.12-1.245-0.119-1.874c0.003-7.377,0.007-14.754-0.009-22.131c-0.002-0.513,0.09-0.718,0.65-0.679
		c0.752,0.054,1.513,0.054,2.266,0c0.56-0.04,0.653,0.166,0.65,0.679C104.382,44.896,104.392,48.658,104.392,52.421z"/>
	<path fill-rule="evenodd" clip-rule="evenodd" fill="#738E0E" d="M93.652,60.561c0,3.374-0.009,6.748,0.011,10.123
		c0.003,0.464-0.121,0.587-0.581,0.578c-1.475-0.03-2.951-0.024-4.425-0.003c-0.395,0.006-0.494-0.127-0.494-0.506
		c0.01-6.785,0.01-13.571,0-20.356c-0.001-0.398,0.132-0.492,0.507-0.486c1.493,0.019,2.988,0.024,4.48-0.004
		c0.43-0.008,0.512,0.131,0.51,0.53C93.646,53.811,93.652,57.187,93.652,60.561z"/>
	<path fill-rule="evenodd" clip-rule="evenodd" fill="#738E0E" d="M200.386,52.242c1.741-2.099,3.888-2.935,6.436-2.871
		c0.406,0.01,0.546,0.122,0.531,0.539c-0.031,0.829-0.026,1.66-0.001,2.489c0.011,0.39-0.059,0.527-0.508,0.525
		c-1.85-0.013-3.543,0.456-4.852,1.863c-1.029,1.106-1.469,2.455-1.473,3.943c-0.011,3.965-0.014,7.93,0.009,11.895
		c0.003,0.517-0.144,0.659-0.645,0.635c-0.809-0.04-1.623-0.021-2.434-0.006c-0.333,0.006-0.487-0.06-0.485-0.453
		c0.012-6.805,0.01-13.609,0.001-20.415c0-0.349,0.081-0.489,0.459-0.478c0.848,0.026,1.697,0.025,2.544,0
		c0.356-0.011,0.437,0.119,0.423,0.446C200.369,50.94,200.386,51.526,200.386,52.242z"/>
	<path fill-rule="evenodd" clip-rule="evenodd" fill="#738E0E" d="M139.386,69.479c0-0.517-0.168-1.12,0.043-1.527
		c0.243-0.468,0.918-0.164,1.398-0.242c2.728-0.444,4.035-1.935,4.317-4.913c0.15-1.582,0.041-3.171,0.208-4.752
		c0.194-1.837,0.555-3.614,1.727-5.113c1.614-2.063,3.79-2.971,6.365-3.011c1.16-0.02,1.16-0.01,1.16,1.146
		c0,0.572-0.025,1.146,0.008,1.716c0.025,0.431-0.061,0.628-0.558,0.603c-0.492-0.024-0.996,0.044-1.484,0.13
		c-1.954,0.343-3.153,1.647-3.561,3.79c-0.312,1.644-0.218,3.308-0.315,4.962c-0.097,1.646-0.287,3.284-1.081,4.761
		c-1.55,2.883-4.078,4.134-7.263,4.221c-0.97,0.026-0.971,0.007-0.971-0.938c0-0.276,0-0.554,0-0.83
		C139.381,69.479,139.383,69.479,139.386,69.479z"/>
	<path fill-rule="evenodd" clip-rule="evenodd" fill="#738E0E" d="M154.381,69.507c0.001-0.461,0.014-0.922-0.003-1.383
		c-0.011-0.292,0.096-0.383,0.384-0.367c0.668,0.035,1.326-0.06,1.968-0.236c2.161-0.598,3.072-2.172,3.358-4.26
		c0.184-1.339,0.135-2.686,0.197-4.028c0.075-1.665,0.225-3.328,0.949-4.85c1.396-2.938,3.831-4.318,7.019-4.46
		c1.371-0.061,1.372-0.037,1.372,1.309c0,0.59-0.014,1.181,0.005,1.77c0.009,0.294-0.094,0.367-0.379,0.376
		c-0.569,0.018-1.146,0.042-1.705,0.143c-2.03,0.368-3.215,1.751-3.584,4.086c-0.205,1.299-0.192,2.607-0.227,3.915
		c-0.046,1.757-0.177,3.517-0.936,5.13c-1.444,3.066-3.994,4.452-7.297,4.594c-1.12,0.049-1.121,0.022-1.121-1.072
		C154.381,69.95,154.381,69.729,154.381,69.507z"/>
	<path fill-rule="evenodd" clip-rule="evenodd" fill="#C8CE6F" d="M96.707,30.062c0.021-1.593-0.233-3.121-0.843-4.586
		c-0.362-0.87-0.78-1.716-1.329-2.478c-1.806-2.505-1.955-5.2-0.991-8.039c0.403-1.188,0.941-2.315,1.536-3.419
		c0.095-0.177,0.166-0.345,0.384-0.113c1.611,1.714,3.159,3.466,3.66,5.871c0.365,1.749-0.023,3.399-0.672,5.011
		c-0.207,0.511-0.424,1.022-0.689,1.504c-0.444,0.807-0.559,1.654-0.493,2.56c0.065,0.879,0.151,1.767-0.069,2.64
		C97.107,29.385,96.991,29.75,96.707,30.062z"/>
	<path fill-rule="evenodd" clip-rule="evenodd" fill="#C8CE6F" d="M107.038,22.792c-0.061,2.774-1.404,4.828-3.602,6.39
		c-1.485,1.057-3.147,1.748-4.875,2.302c-0.375,0.12-0.411-0.011-0.369-0.317c0.278-2.027,0.587-4.047,1.448-5.931
		c1.072-2.346,2.885-3.873,5.292-4.713c1.259-0.44,1.877-0.013,2.023,1.334C106.989,22.167,107.01,22.479,107.038,22.792z"/>
	<path fill-rule="evenodd" clip-rule="evenodd" fill="#C8CE6F" d="M95.309,31.479c-3.016-0.979-5.812-2.14-7.658-4.812
		c-1.028-1.489-1.354-3.17-1.172-4.947c0.145-1.395,0.792-1.787,2.13-1.307c2.202,0.791,3.918,2.171,4.995,4.275
		C94.68,26.789,94.997,29.083,95.309,31.479z"/>
	<path fill-rule="evenodd" clip-rule="evenodd" fill="#738E0E" d="M88.116,44.482c-0.003-1.53,1.196-2.747,2.717-2.758
		c1.557-0.011,2.771,1.204,2.764,2.765c-0.007,1.531-1.221,2.74-2.744,2.733C89.328,47.215,88.12,46.007,88.116,44.482z"/>
</g>
</svg>
